PathFileType	4	(X/Y/Z)	pose_F01_0-89.trc
DataRate	CameraRate	NumFrames	NumMarkers	Units	OrigDataRate	OrigDataStartFrame	OrigNumFrames
30	30	10	21	m	30	66	89
Frame#	Time	CHip			RHip			RKnee			RAnkle			RBigToe			RSmallToe			RHeel			LHip			LKnee			LAnkle			LBigToe			LSmallToe			LHeel			Neck			Nose			RShoulder			RElbow			RWrist			LShoulder			LElbow			LWrist			
		X1	Y1	Z1	X2	Y2	Z2	X3	Y3	Z3	X4	Y4	Z4	X5	Y5	Z5	X6	Y6	Z6	X7	Y7	Z7	X8	Y8	Z8	X9	Y9	Z9	X10	Y10	Z10	X11	Y11	Z11	X12	Y12	Z12	X13	Y13	Z13	X14	Y14	Z14	X15	Y15	Z15	X16	Y16	Z16	X17	Y17	Z17	X18	Y18	Z18	X19	Y19	Z19	X20	Y20	Z20	X21	Y21	Z21	
66	2.2	-0.22826285104495733	1.8365625140747717	-0.5014989346331643	-0.23916320575456468	1.8311484853007165	-0.43115862295885693	-0.24651563617424266	1.7155882208798574	-0.450410432951344	-0.23617752880919282	1.6136640673274332	-0.4413703695802904							-0.22638552464021186	1.6123964979942877	-0.4246374230687787	-0.2130368917117671	1.8364183996072327	-0.5618412881874847	-0.22212958144417252	1.7207327160664174	-0.5793547947959482	-0.20974797744505796	1.609546485203251	-0.5107706308350582	-0.22390396254066963	1.5846797483936998	-0.5425859696113292	-0.21050513759808678	1.5842704998070407	-0.5736058409902084	-0.21482281565526376	1.5997355064859988	-0.5026553218164727	-1.7381313461131878	1.8905998543571707	1.1696255137759333	-0.23061184727003664	2.0443668560826684	-0.545303394082645	-0.24195026802508832	1.9797415484594834	-0.42150988879660667	-0.2632698386408068	1.914435361846571	-0.33703031302672426	-0.27695791240843787	1.9705504487628818	-0.33595992196717245	-0.19930942873828825	1.9847782159088931	-0.5928294448790195	-0.1717853398998975	1.9219063920084105	-0.6280200252864576	-0.1746922995042159	1.952641253804498	-0.688334558525352
67	2.2333333333333334	-0.22988653244282187	1.8391050996170066	-0.5083961750452591	-0.23906582401626633	1.8356332623413096	-0.44043029508185405	-0.24651563617424266	1.7155882208798574	-0.450410432951344	-0.23617752880919282	1.6136640673274332	-0.4413703695802904							-0.22638552464021186	1.6123964979942877	-0.4246374230687787	-0.21604011203012266	1.8425162097224663	-0.5635069999727093	-0.2209058312951106	1.7212360708019678	-0.5545111796711516	-0.21411380259088816	1.605360266671065	-0.519265212316367	-0.22390396254066963	1.5846797483936998	-0.5425859696113292	-0.21102488822987658	1.5722283555886247	-0.5770249481084798	-0.2176203358991689	1.595362614172211	-0.5014327953312218	-0.22145513916806583	1.9865292014574079	-0.5022958564003528	-0.22959616475623465	2.0454559711290567	-0.542072860260892	-0.24091136934077956	1.9836410356419163	-0.41923871514181194	-0.2660720134320287	1.9210649758056226	-0.33900523798486676	-0.27663962137420917	1.983226761204872	-0.34617327560528993	-0.19845622713722513	1.9912102618888943	-0.590652109662725	-0.17127056173330069	1.9286502021209067	-0.6495336928881641	-1.3257115091478684	1.8725619900598576	0.5131999914693837
68	2.2666666666666666	-0.22833967949858608	1.8528302754456556	-0.5066883016931686	-0.2392035936800451	1.8467374732869215	-0.43648625670203167	-0.24651563617424266	1.7155882208798574	-0.450410432951344	-0.23617752880919282	1.6136640673274332	-0.4413703695802904							-0.22638552464021186	1.6123964979942877	-0.4246374230687787	-0.21422091012367814	1.8517560390296597	-0.5615856603756053	-0.2199030321627565	1.7202553083410204	-0.5530885879716326	-0.21411380259088816	1.605360266671065	-0.519265212316367	-0.22390396254066963	1.5846797483936998	-0.5425859696113292	-0.21057217916637225	1.5645225450551095	-0.5806337027883973	-0.2176203358991689	1.595362614172211	-0.5014327953312218	-0.22119327413340714	1.9889619765941007	-0.5022182810537771	-0.2287465861044218	2.043355644106382	-0.5390479847053694	-0.23971452973142188	1.9869818478496504	-0.4164334847450471	-0.26386864283831507	1.9212963753045962	-0.34103115850663923	-0.2768571503923864	1.9855491792705826	-0.3698822745669979	-0.19806613449557342	1.9954302485329989	-0.5904734235399212	-1.3090916557633492	1.8533348138980243	0.5167294295941445	-0.16718877772511573	1.9932370288880443	-0.7205615408516821
69	2.3	-0.22842371211527537	1.840104935639763	-0.5057912083336089	-0.23864918305103242	1.837180972256559	-0.44089740325988763	-0.24651563617424266	1.7155882208798574	-0.450410432951344	-0.23617752880919282	1.6136640673274332	-0.4413703695802904							-0.22638552464021186	1.6123964979942877	-0.4246374230687787	-0.21113527690206985	1.8409172566980194	-0.5680890527423278	-0.2189002330304024	1.7192745458800731	-0.5516659962721137	-0.21411380259088816	1.605360266671065	-0.519265212316367	-0.22390396254066963	1.5846797483936998	-0.5425859696113292	-0.21240488756293915	1.5655474530492213	-0.5789367404600081	-0.2176203358991689	1.595362614172211	-0.5014327953312218	-1.7493823764163696	1.8927246998957798	1.1889682196771658	-0.22876062645635228	2.0419734091727504	-0.5391066357168219	-0.23783091193133196	1.9818189265566226	-0.41773314088377067	-0.2556696033478775	1.9122371791142272	-0.3596639130219515	-0.2741860858231015	1.949437501680387	-0.36786620364770556	-0.19624682937015608	1.9862639447154444	-0.591793840559522	-1.2882530326145054	1.8632157482374365	0.48327610312811864	-0.16762475891850287	2.00577798750474	-0.7247215806843356
70	2.3333333333333335	-0.2266861792931445	1.8398614013721464	-0.5076262362179637	-0.23586587375517828	1.8364921266832435	-0.4396446793653322	-0.24651563617424266	1.7155882208798574	-0.450410432951344	-0.23617752880919282	1.6136640673274332	-0.4413703695802904							-0.22638552464021186	1.6123964979942877	-0.4246374230687787	-0.21140145922180384	1.8405907737401468	-0.5677379016239508	-0.2178974338980483	1.7182937834191256	-0.5502434045725947	-0.21411380259088816	1.605360266671065	-0.519265212316367	-0.22390396254066963	1.5846797483936998	-0.5425859696113292	-0.21191061509611991	1.5659465281641312	-0.5794504575874385	-0.2176203358991689	1.595362614172211	-0.5014327953312218	-1.7357441026666134	1.8908243172750032	1.1670943334733916	-0.2258667129262949	2.0430741547593207	-0.5381603060325714	-0.23592884338250086	1.9793053885798386	-0.4190345633282024	-0.2498970262538809	1.907259826246626	-0.38231082315010845	-0.279197499260723	1.9241312112782227	-0.3903912182896158	-1.5596938660719546	1.8931657172467766	0.8822591429010763	-1.2897136278538963	1.8628689838013301	0.48313346407918617	-0.16809472954710752	2.0024289502843606	-0.7250588885706811
71	2.3666666666666667	-0.22628037242738452	1.839433581270818	-0.5077270175856848	-0.23530261788698426	1.8372109794448015	-0.4398829480247383	-0.24651563617424266	1.7155882208798574	-0.450410432951344	-0.23617752880919282	1.6136640673274332	-0.4413703695802904							-0.22638552464021186	1.6123964979942877	-0.4246374230687787	-0.21009052189821273	1.8396214158022666	-0.5649280377088904	-0.2168946347656942	1.7173130209581782	-0.5488208128730757	-0.21411380259088816	1.605360266671065	-0.519265212316367	-0.22390396254066963	1.5846797483936998	-0.5425859696113292	-0.2123983134907016	1.565348745318543	-0.57890211356524	-0.2176203358991689	1.595362614172211	-0.5014327953312218	-1.7379949199682572	1.8927039017458136	1.1700312869999587	-0.22667248817919486	2.043368777831793	-0.5412198556044102	-0.23683665439339943	1.9818558212259383	-0.4226682610344834	-0.24878248077142778	1.913096947569886	-0.37112151525994364	-0.286300721128851	1.8822852342228733	-0.3720746940741904	-1.558373023099575	1.8929532010371983	0.8811295389386558	-1.2840930582598293	1.8579772583299774	0.47695833155839734	-0.16131254704781484	1.997303331117902	-0.7310119084576054
72	2.4	-0.22446143701208668	1.8418081316465407	-0.5100540920478636	-0.23463709963758136	1.8372863802198478	-0.445097589149972	-0.24651563617424266	1.7155882208798574	-0.450410432951344	-0.23617752880919282	1.6136640673274332	-0.4413703695802904							-0.22638552464021186	1.6123964979942877	-0.4246374230687787	-0.20818896961561206	1.8424012825908127	-0.5672198463946746	-0.2158918356333401	1.7163322584972307	-0.5473982211735567	-0.21411380259088816	1.605360266671065	-0.519265212316367	-0.22390396254066963	1.5846797483936998	-0.5425859696113292	-0.2124704050966832	1.565921332304507	-0.5789770562398097	-0.2176203358991689	1.595362614172211	-0.5014327953312218	-0.21827598908418971	1.9835142420058378	-0.5091127275982666	-0.22465879531135746	2.0461918801005443	-0.5439301357221289	-0.23787308406117688	1.9811619935828664	-0.42603956097527657	-0.25293615943196535	1.9139822072323653	-0.37598383009132474	-0.27739527236084965	1.8652159544821136	-0.3593297495263193	-0.19507318031499954	1.985985941178301	-0.597166243092446	-1.288014185580305	1.8549366260039732	0.4867437237692056	-0.15045694381436964	1.9874324821751677	-0.7421264031689216
73	2.433333333333333	-0.2223322816821538	1.84333014278085	-0.5038202744253097	-0.2333045097382228	1.8395819925052521	-0.4423372656104776	-0.24651563617424266	1.7155882208798574	-0.450410432951344	-0.23617752880919282	1.6136640673274332	-0.4413703695802904							-0.22638552464021186	1.6123964979942877	-0.4246374230687787	-0.2079803489884205	1.8440263192503215	-0.5672846010051458	-0.21488903650098604	1.7153514960362835	-0.5459756294740379	-0.21411380259088816	1.605360266671065	-0.519265212316367	-0.22390396254066963	1.5846797483936998	-0.5425859696113292	-0.21224543082447003	1.5646526243388834	-0.5789887812606379	-0.2176203358991689	1.595362614172211	-0.5014327953312218	-1.736480327609399	1.8928470414495597	1.1679638353332318	-0.22548595650355896	2.0465750756183385	-0.5470046889695437	-0.23792802103846408	1.9812838480116142	-0.4260422482840596	-0.25291725704442974	1.9112080682617107	-0.3755257341177404	-0.2684898235928483	1.8481466747413542	-0.3465848049784481	-0.19297717549222868	1.9858068180546975	-0.5994441911560513	-1.28779214691262	1.8533104730292587	0.4912176240372429	-1.2252039754678525	1.8825486483037828	0.35312030038554226
74	2.466666666666667	-0.2214275747532232	1.8419145204830603	-0.509041642941658	-0.23364157662070995	1.8381521549228623	-0.44199920111877516	-0.24651563617424266	1.7155882208798574	-0.450410432951344	-0.23617752880919282	1.6136640673274332	-0.4413703695802904							-0.22638552464021186	1.6123964979942877	-0.4246374230687787	-0.20623228129213503	1.8443761565569385	-0.5694470090536593	-0.21388623736863194	1.714370733575336	-0.5445530377745189	-0.21411380259088816	1.605360266671065	-0.519265212316367	-0.22390396254066963	1.5846797483936998	-0.5425859696113292	-0.2120613180951835	1.564241534572446	-0.5790002524267903	-0.2176203358991689	1.595362614172211	-0.5014327953312218	-0.21827131017682666	1.983449079328109	-0.5092115341201379	-0.2232959414525567	2.0490077750345317	-0.5490474321553871	-0.238924771146439	1.9797496330781355	-0.4287551726209496	-0.2533249337800924	1.9023843817373751	-0.3832186767421643	-0.2595843748248469	1.8310773950005945	-0.333839860430577	-0.19291416048251392	1.9858911280785991	-0.5995929203143483	-0.1667840263748604	1.942301917204423	-0.6763267691486106	-0.14570438218552462	1.9327697643666948	-0.787291900412605
75	2.5	-0.22128724550563458	1.8403067875412287	-0.5178849676886327	-0.23469300921849703	1.8377631667614531	-0.45404469052831864	-0.24651563617424266	1.7155882208798574	-0.450410432951344	-0.23617752880919282	1.6136640673274332	-0.4413703695802904							-0.22638552464021186	1.6123964979942877	-0.4246374230687787	-0.20699160384808424	1.842778100228266	-0.572732829066253	-0.21288343823627784	1.7133899711143885	-0.5431304460749999	-0.21411380259088816	1.605360266671065	-0.519265212316367	-0.22390396254066963	1.5846797483936998	-0.5425859696113292	-0.21015827046346433	1.5651628673276148	-0.5811515329569265	-0.2176203358991689	1.595362614172211	-0.5014327953312218	-1.7241909935270827	1.8905764720717322	1.1474586532501365	-0.22404576026310832	2.051531167966402	-0.5610647823143149	-0.24094042443690944	1.980143024453386	-0.4352140299446746	-0.25054751326529917	1.898410908024079	-0.39034032672734836	-0.2592619859289021	1.8232056619810364	-0.37017474609303525	-0.19172016066030845	1.987717452764952	-0.6053312155873077	-0.17119749852467975	1.9289049648026886	-0.6699432214763116	-0.14835919329869451	1.8887789648818556	-0.7666037861768402
